<?xml version="1.0" encoding="utf-8"?>
<!-- Generator: Adobe Illustrator 19.0.0, SVG Export Plug-In . SVG Version: 6.00 Build 0)  -->
<svg version="1.1" id="Layer_1" xmlns="http://www.w3.org/2000/svg" xmlns:xlink="http://www.w3.org/1999/xlink" x="0px" y="0px"
	 viewBox="0 0 1918.6 300.4" style="enable-background:new 0 0 1918.6 300.4;" xml:space="preserve">
<style type="text/css">
	.st0{fill:#048A8B;}
</style>
<g>
	<g>
		<path class="st0" d="M833.8,170.2c-8.9,6.6-18.5,8.2-28.8,5.4c-6-1.6-10.8-5.2-14.5-10.1c-8-10.6-8.2-25.8-0.7-36.6
			c1.9-2.7,4.2-5,6.9-7c2.7-1.9,5.6-3.3,8.8-4.2c3.3-1,6.6-1.1,10-1c3.3,0,6.6,0.6,9.6,1.9c3,1.3,5.8,2.9,9,4.6
			c0-1.3,0.1-2.5,0.1-3.7c0-0.9,0.4-1.4,1.3-1.4c2.6,0,5.2,0,8.1,0c0.1,1,0.2,1.7,0.2,2.5c0,17,0.1,33.9,0,50.9
			c0,5.4-1.1,10.6-4.1,15.3c-4.2,6.6-10.5,10.1-18,11.7c-10.2,2.2-20,0.4-29.4-3.8c-1.7-0.7-2.5-1.7-2.3-3.6c0.2-2.5,0-4.9,0-7.8
			c1,0.6,1.8,1,2.5,1.4c7,4.3,14.7,6.1,22.9,5.6c3.7-0.2,7.3-1.1,10.5-2.9C831.7,183.9,835,177.3,833.8,170.2z M834.1,146.7
			c0-2.6-0.1-5.1,0-7.7c0-1.4-0.4-2.7-1.1-3.8c-4.9-7.4-13.8-11.1-22.8-9c-12.9,2.9-18.3,15.4-15.5,26.1
			c2.3,9.1,10.4,15.8,21.3,15.4c6.8-0.3,12.3-3.1,16.4-8.5c1.2-1.6,1.9-3.3,1.8-5.3C834,151.5,834.1,149.1,834.1,146.7z"/>
		<path class="st0" d="M1259.8,117.9c0.2,1.7,0.3,3,0.5,4.8c1-0.6,1.7-1,2.4-1.5c6.8-4.6,14.3-5.7,22.2-4c4.4,0.9,7.9,3.3,10.6,7
			c0.3,0.4,0.7,0.8,1.3,1.4c0.8-0.7,1.5-1.3,2.2-1.9c6.8-6.1,14.9-8.2,23.8-6.7c8.7,1.5,13.6,7,15.4,15.3c0.6,2.8,0.9,5.7,0.9,8.6
			c0.1,10.7,0,21.4,0,32.2c0,0.5,0,1,0,1.4c0,1-0.5,1.5-1.5,1.5c-2.2,0-4.5,0-6.7,0c-1,0-1.4-0.5-1.4-1.5c0-0.6,0-1.3,0-1.9
			c0-10.6,0-21.3,0-31.9c0-2.7-0.4-5.3-1.4-7.7c-1.8-4.5-5.3-6.7-10-7c-7.8-0.5-13.4,3.4-17.8,9.4c-0.7,0.9-0.9,2-0.9,3.1
			c0.1,11.4,0.1,22.9,0.1,34.3c0,0.6,0,1.1,0,1.7c0,1-0.5,1.5-1.5,1.5c-2.2,0-4.3,0-6.5,0c-1,0-1.4-0.6-1.4-1.5c0-0.6,0-1.3,0-1.9
			c0-10.1,0.1-20.2,0-30.2c0-2.6-0.3-5.3-0.9-7.8c-1.4-5.7-5.3-8.5-11.2-8.6c-7.7-0.2-13,3.8-17.2,9.6c-0.6,0.9-0.7,2.3-0.7,3.4
			c-0.1,11.2,0,22.4,0,33.6c0,3.5,0,3.5-3.6,3.5c-1.4,0-2.7,0-4.1,0c-1.2,0-1.8-0.6-1.7-1.8c0-0.5,0-1,0-1.4c0-17.2,0-34.4,0-51.6
			c0-3.2,0-3.2,3.1-3.2C1255.7,117.9,1257.7,117.9,1259.8,117.9z"/>
		<path class="st0" d="M1021.8,126.7c3.4-0.1,6.4-0.1,9.5,0c0.1,1,0.2,1.7,0.2,2.4c0,10.9,0,21.8,0,32.6c0,1.5-0.5,2.5-1.5,3.6
			c-6.5,6.4-14.2,10.2-23.2,11.5c-8.1,1.2-16.1,0.8-23.8-2.4c-13.8-5.8-22.1-16.3-25-30.9c-2-10.1-1-20.1,3.7-29.4
			c6-12.1,15.8-19.4,29.1-22c10.6-2,20.7-0.5,30.2,4.5c0.9,0.5,1.8,1.1,2.7,1.6c2.4,1.2,3.5,3,3.2,5.8c-0.2,2.3,0,4.6,0,7.4
			c-0.9-0.5-1.5-0.8-2-1.3c-5.9-4.9-12.6-7.9-20.1-8.9c-18.4-2.4-33.3,8.1-37,25.4c-2.1,9.8-0.7,19.1,4.9,27.6
			c6.1,9.1,14.8,13.6,25.7,14c5.5,0.2,10.8-0.7,15.9-3c1.9-0.9,3.7-2.2,5.6-3.3c1.5-1,2.1-2.3,2.1-4.2c-0.1-9.1,0-18.2,0-27.3
			C1021.8,129.2,1021.8,128.1,1021.8,126.7z"/>
		<path class="st0" d="M419.2,136c-1,0-2,0-2.9,0c-10.6,0-21.1,0-31.7,0c-0.5,0-1,0-1.4,0c-2.7,0-2.9,0.2-2.9,2.8
			c0,5.8,0,11.5,0,17.3c0,2.8,0,5.6,0,8.4c0,2.1,0.3,2.4,2.4,2.4c4.8,0,9.6,0,14.4,0c9.8,0,19.5,0,29.3,0c0.9,0,1.9,0,3.1,0
			c0.4,2.8,0.3,5.4,0.1,8c0,0.4-0.7,0.8-1.2,1c-0.7,0.2-1.4,0.1-2.1,0.1c-17.4,0-34.7,0-52.1,0c-0.2,0-0.5,0-0.7,0
			c-2.5-0.1-2.7-0.2-2.7-2.8c0-12.2,0-24.3,0-36.5c0-13.5,0-27,0-40.6c0-1,0-2.1,0-3.3c0.9-0.1,1.6-0.2,2.3-0.2
			c17.4,0,34.9,0,52.3,0c2.3,0,2.4,0.1,2.5,2.5c0,1.7,0,3.4,0,5c0,1.2-0.5,1.8-1.7,1.7c-0.6,0-1.3,0-1.9,0c-13.3,0-26.6,0-39.8,0
			c-0.6,0-1.3,0-1.9,0c-1.9,0.1-2.2,0.2-2.2,2.1c0,6.9,0,13.8,0,20.6c0,2,0.3,2.1,2.6,2.1c11.1,0,22.2,0,33.4,0c0.9,0,1.9,0,2.8,0
			C419.8,128.6,419.9,133.1,419.2,136z"/>
		<path class="st0" d="M618.2,123.6c1.1-0.7,1.7-1.1,2.3-1.5c5.1-3.7,10.7-5.4,17-5.6c8.1-0.2,15.1,2.3,20.9,7.9
			c5.9,5.7,8.9,12.8,9.3,20.9c0.4,7.8-1.6,14.9-6.4,21.1c-5.3,6.8-12.3,10.4-21,10.9c-7.4,0.4-14.3-1.2-20.3-5.7
			c-0.3-0.2-0.7-0.4-1-0.6c-0.1-0.1-0.3,0-0.8,0c-0.1,1-0.2,2.1-0.3,3.2c-0.1,1.5-0.3,1.8-1.9,1.9c-1.8,0.1-3.7,0.1-5.5,0
			c-1.7-0.1-1.9-0.3-2-1.9c0-0.6,0-1.1,0-1.7c0-25.4,0-50.8,0-76.3c0-3.7-0.1-3.4,3.3-3.4c1.5,0,3,0,4.6,0c1,0,1.5,0.5,1.5,1.4
			c0,0.6,0,1.3,0,1.9c0,8,0,16,0,24C617.9,121,618.1,122,618.2,123.6z M658,147.1c0-0.2,0-0.5,0-0.8c0-9.1-6.5-20.5-20.9-20.6
			c-8-0.1-14.2,3.8-18.4,10.7c-0.5,0.9-0.8,2.1-0.8,3.2c-0.1,5,0,10.1,0,15.1c0,1.5,0.4,2.8,1.2,4c4.5,6.9,13.8,11.3,23,9.1
			C652.3,165.3,658.3,156.3,658,147.1z"/>
		<path class="st0" d="M484.3,170.8c-0.5,0.4-1.2,0.8-1.8,1.2c-4.8,3.3-10,5-15.9,5.4c-17.8,1.1-29.4-12-31-25.7
			c-1.4-11.7,2-21.5,11.2-29c4.7-3.9,10.2-5.7,16.3-6c7.4-0.3,14.1,1.4,20,5.9c0.3,0.2,0.5,0.4,0.8,0.5c0.1,0.1,0.3,0.1,0.5,0.1
			c0.9-0.7,0.6-1.7,0.6-2.6c0-7.8,0-15.7,0-23.5c0-0.6,0-1.1,0-1.7c0-2.6,0-2.7,2.7-2.7c1.6,0,3.2,0,4.8,0c1.7,0,1.9,0.2,1.9,2
			c0,0.5,0,1,0,1.4c0,25.4,0,50.8,0,76.3c0,0.2,0,0.3,0,0.5c0,3.2,0,3.2-3.2,3.2c-1.3,0-2.6,0-3.8,0c-2.2-0.1-2.3-0.2-2.4-2.3
			c0-0.8-0.1-1.6-0.2-2.4C484.9,171.2,484.7,171.1,484.3,170.8z M485.1,147.1c0-2.6,0.1-5.3,0-7.9c0-1-0.3-2.1-0.8-2.9
			c-6-9.7-18.3-13.8-28.8-7.9c-7.4,4.2-10.6,11-10.5,19.4c0.1,9.5,7,20.6,21.2,20.6c7.4,0,13.3-3.4,17.6-9.6
			c0.9-1.3,1.4-2.7,1.3-4.3C485,152,485.1,149.5,485.1,147.1z"/>
		<path class="st0" d="M1766.6,123.2c0.1-1.1,0.1-2,0.1-2.9c0-8.1,0-16.2,0-24.2c0-0.6,0-1.3,0-1.9c0-1,0.4-1.5,1.5-1.5
			c2.2,0,4.3,0,6.5,0c1,0,1.4,0.6,1.4,1.5c0,0.6,0,1.3,0,1.9c0,25.4,0,50.9,0,76.3c0,3.6,0,3.6-3.7,3.6c-1.4,0-2.7,0-4.1,0
			c-1.1,0-1.6-0.6-1.6-1.7c0-1.1,0-2.2,0-3.9c-1.2,0.7-1.9,1.1-2.6,1.6c-10.8,6.9-22,7.5-33.1,1.2c-8.2-4.7-12.5-12.3-13.8-21.6
			c-1.3-9.6,1.1-18.3,7.5-25.6c5.4-6.1,12.3-9.1,20.5-9.4c7.1-0.2,13.6,1.5,19.3,5.8c0.3,0.2,0.7,0.5,1,0.7
			C1765.8,123.1,1766,123.1,1766.6,123.2z M1766.8,147.2c0-2.6,0.1-5.3,0-7.9c0-1-0.2-2.1-0.7-3c-6-9.9-18.4-13.9-29-8
			c-8.9,5-12.7,15.9-9.3,26c2.6,7.7,10.8,15.3,22.7,13.6c6.7-0.9,11.8-4.3,15.3-10c0.6-0.9,0.9-2.1,0.9-3.1
			C1766.9,152.4,1766.8,149.8,1766.8,147.2z"/>
		<path class="st0" d="M1099.4,149.9c-15.3,0-30.4,0-45.9,0c0.1,1.2,0.1,2.3,0.3,3.2c2.2,7.7,7.4,12.4,15,14.3
			c8.6,2.1,16.6,0.8,24-4.3c0.7-0.5,1.4-0.9,2.5-1.6c0,3.3,0,6.2,0,9.1c0,1.2-0.9,1.7-1.7,2.1c-2.9,1.8-6,3-9.3,3.6
			c-7,1.4-14,1.6-20.8-1c-11.8-4.4-18.6-12.9-19.8-25.5c-0.8-8.3,1-15.9,6.1-22.6c5.2-6.8,12.2-10.3,20.8-10.8
			c5.6-0.3,11,0.5,15.9,3.6c6.7,4.2,10.4,10.5,12.1,18c0.7,3.2,0.7,6.5,1,9.7C1099.7,148.4,1099.6,149,1099.4,149.9z M1089.5,141.1
			c0.2-0.7,0.2-0.9,0.2-1c-0.7-7-6.8-13.3-13.7-14.1c-2-0.3-4.1-0.3-6.2-0.1c-7.7,0.9-12.8,5.3-15.6,12.4c-0.3,0.8-0.3,1.6-0.6,2.8
			C1065.9,141.1,1077.7,141.1,1089.5,141.1z"/>
		<path class="st0" d="M1360.2,149.9c0.2,1.4,0.2,2.4,0.5,3.3c2.2,7.7,7.4,12.4,15.1,14.3c8.6,2.1,16.6,0.7,24-4.3
			c0.5-0.4,1.1-0.7,1.6-1.1c0.1-0.1,0.3-0.1,0.6-0.3c0.1,0.6,0.2,1.2,0.2,1.8c0,1.9-0.1,3.8,0,5.8c0.2,1.9-0.7,2.9-2.2,3.8
			c-3.9,2.2-8.1,3.5-12.5,3.9c-5.5,0.5-11,0.5-16.4-1.3c-12.7-4.1-20-14.9-20.6-26.2c-0.5-8.1,1.1-15.6,6.1-22.1
			c5.3-7,12.4-10.5,21.2-10.9c5.6-0.3,11,0.7,15.8,3.7c6.6,4.2,10.1,10.5,11.9,17.9c0.8,3.7,1.3,7.4,0.8,11.4
			c-0.9,0.1-1.9,0.2-2.8,0.2c-13.4,0-26.7,0-40.1,0C1362.5,149.9,1361.5,149.9,1360.2,149.9z M1360.3,141.1c3.4,0,6.3,0,9.2,0
			c3,0,5.9,0,8.9,0c3,0,6.1,0,9.1,0c2.9,0,5.8,0.1,8.8-0.1c0-0.7,0.1-1,0-1.3c-1.1-5.7-4-10.2-9.5-12.5c-6.7-2.9-13.3-2.2-19.3,2.1
			C1363.8,132,1361.4,135.8,1360.3,141.1z"/>
		<path class="st0" d="M860,92.7c3,0,5.5,0,7.9,0c1,0,1.4,0.5,1.4,1.5c0,0.6,0,1.3,0,1.9c0,8.2,0,16.3,0,24.5c0,0.9,0.1,1.8,0.2,3.3
			c1.1-0.7,1.8-1.2,2.5-1.7c8-5.4,16.7-6.9,26.1-4.6c7.2,1.8,11.8,6.6,13.7,13.7c0.9,3.1,1.4,6.4,1.4,9.7
			c0.2,10.8,0.1,21.6,0.1,32.4c0,0.5,0.1,1-0.1,1.4c-0.2,0.5-0.7,1.2-1.1,1.2c-2.4,0.1-4.8,0.1-7.2,0.1c-0.9,0-1.3-0.6-1.3-1.4
			c0-0.6,0-1.3,0-1.9c0-10.4,0-20.8,0-31.2c0-2.1-0.3-4.3-0.9-6.4c-1.3-4.9-5-8.6-11.8-9.2c-8.4-0.7-14.8,3.1-20.2,9
			c-1.1,1.2-1.4,2.6-1.4,4.2c0,11.2,0,22.4,0,33.6c0,3.3,0,3.3-3.3,3.3c-1.4,0-2.9,0-4.3,0c-1.2,0-1.8-0.5-1.8-1.7
			c0-0.6,0-1.3,0-1.9c0-25.4,0-50.9,0-76.3C860,95,860,94,860,92.7z"/>
		<path class="st0" d="M1450.8,92.8c1.2-0.1,1.9-0.2,2.6-0.2c17.1,0,34.2,0,51.3,0c2.6,0,2.6,0,2.6,2.7c0,2.1-0.1,4.1-0.1,6.4
			c-1.2,0.1-2.1,0.1-3.1,0.1c-13.5,0-27,0-40.5,0c-3.3,0-3.4,0-3.4,3.3c0,6.4,0,12.8,0,19.2c0,1,0.2,2,0.3,3.3c1.2,0,2.1,0,3,0
			c10.8,0,21.6,0,32.4,0c0.6,0,1.3,0,1.9,0c0.8,0,1.2,0.4,1.2,1.2c0,2.2,0,4.5,0,6.7c0,0.9-0.5,1.3-1.3,1.3c-0.7,0-1.4,0-2.2,0
			c-10.6,0-21.1,0-31.7,0c-0.7,0-1.4,0-2.2,0c-1,0-1.5,0.6-1.5,1.5c0,0.7,0,1.4,0,2.2c0,10.3,0,20.6,0,30.9c0,0.6,0,1.3,0,1.9
			c-0.1,2.3-0.2,2.4-2.5,2.4c-1.8,0-3.5,0-5.3,0c-1.1,0-1.6-0.5-1.7-1.6c0-0.6,0-1.3,0-1.9c0-25.5,0-51,0-76.5
			C1450.8,95,1450.8,94,1450.8,92.8z"/>
		<path class="st0" d="M1540.2,177.6c-14.6,0.1-25.9-9.5-29.4-21.5c-5-17.1,4.6-34.5,21.7-38.6c13.6-3.3,27,1.6,34.2,13.3
			c10.2,16.7,2.9,40.5-18.4,45.8C1545.6,177.2,1542.9,177.2,1540.2,177.6z M1561.5,147.1c0-11.5-8.2-21.6-21.3-21.5
			c-14.6,0.1-21.1,11.9-21.1,21.5c0,9.2,6.3,21.1,21.1,21.2C1553.4,168.4,1561.5,158.2,1561.5,147.1z"/>
		<path class="st0" d="M1207.4,177.5c-14.6,0.1-25.6-9.2-29.2-20.8c-5.3-16.9,3.7-35.2,21.4-39.3c18.6-4.3,34.5,6.2,38.1,23.3
			c3.3,15.9-6.1,32.8-23.7,36C1211.8,177.2,1209.6,177.3,1207.4,177.5z M1228.7,147c0-10.5-7.2-21.3-21.2-21.4
			c-12.6-0.1-21.3,9.3-21.2,21.5c0,11.5,8.1,21.1,21.1,21.1C1221.2,168.3,1228.7,157.6,1228.7,147z"/>
		<path class="st0" d="M1828.3,118c3.4,0,6.4,0,9.3,0c1.4,0,1.7,1.1,2.1,2c2.3,4.9,4.6,9.9,6.9,14.8c3.6,7.8,7.3,15.7,10.9,23.5
			c0.4,0.8,0.8,1.5,1.4,2.8c0.6-1.1,1.1-1.8,1.4-2.5c5.7-12.7,11.4-25.4,17-38.1c0.8-1.8,1.7-2.6,3.7-2.5c2.4,0.2,4.9,0,7.8,0
			c-0.5,1.2-0.8,2-1.1,2.8c-6.6,14.6-13.2,29.1-19.8,43.7c-3,6.5-5.9,13.1-9,19.6c-1.4,2.9-3.1,5.6-5.1,8.1c-3.7,4.9-8.8,7.4-15,7.1
			c-2.4-0.1-4.8-0.4-7-1.5c-1.3-0.6-2-1.4-1.9-3c0.1-2.4,0-4.9,0-7.8c1.2,0.6,2,1,2.7,1.4c5.3,2.8,11,2.5,14.7-3.2
			c2.3-3.5,4-7.3,6-10.9c0.6-1.2,0.1-2.1-0.4-3.2c-3.4-7.2-6.8-14.5-10.2-21.7c-4.5-9.6-9.1-19.2-13.6-28.8
			C1829,119.9,1828.8,119.1,1828.3,118z"/>
		<path class="st0" d="M679.1,118.1c3.4,0,6.3,0,9.4,0c0.1,1.1,0.2,2,0.2,2.9c0,10.3,0,20.6,0,31c0,2.5,0.2,4.9,1,7.3
			c1.7,5.2,5.4,8,10.7,8.6c9,1.1,15.9-2.9,21.6-9.5c1-1.1,1-2.5,1-3.8c0-11,0-21.9,0-32.9c0-4-0.2-3.8,3.8-3.8c1.5,0,3,0,4.6,0.1
			c0.2,0,0.4,0.1,0.8,0.3c0.1,0.6,0.2,1.2,0.2,1.8c0,17.8,0,35.7,0,53.5c0,2.2-0.1,2.3-2.3,2.4c-1.6,0-3.2,0-4.8,0
			c-2.1-0.1-2.2-0.2-2.3-2.4c-0.1-1-0.2-2-0.4-3.4c-1.4,0.9-2.4,1.6-3.3,2.2c-7.4,4.8-15.6,6-24.1,4.3c-8.3-1.7-13.2-7.1-15.1-15.2
			c-0.7-2.8-0.9-5.7-1-8.5c-0.1-10.6,0-21.3,0-31.9C679.1,120.1,679.1,119.3,679.1,118.1z"/>
		<path class="st0" d="M1582.6,118.1c3.2,0,6.1,0,9.3,0c0.1,1.1,0.2,2,0.2,2.9c0,10.2,0,20.3,0,30.5c0,2.6,0.2,5.3,1,7.8
			c1.7,5.2,5.4,8,10.7,8.7c9,1.1,15.9-2.9,21.7-9.5c0.9-1,1-2.3,1-3.6c0-8,0-16,0-24c0-3.5,0-7,0-10.6c0-2.2,0.2-2.4,2.3-2.4
			c2.2,0,4.4,0,6.9,0c0.1,1,0.2,1.8,0.2,2.6c0,17.6,0,35.2,0,52.8c0,2.6-0.1,2.7-2.7,2.7c-1.6,0-3.2,0-4.8,0
			c-1.5-0.1-1.8-0.3-1.9-1.9c-0.1-1.1-0.2-2.3-0.3-3.9c-1.4,0.9-2.4,1.6-3.4,2.2c-7.3,4.7-15.3,6-23.7,4.4
			c-8.3-1.6-13.4-6.8-15.5-14.8c-0.7-2.7-1.1-5.5-1.1-8.3c-0.1-11-0.1-22.1-0.1-33.1C1582.5,119.8,1582.6,119.1,1582.6,118.1z"/>
		<path class="st0" d="M1112,118.1c3.3,0,6.1,0,9.2,0c0.2,1.8,0.4,3.5,0.6,5.6c1.1-0.7,1.8-1.2,2.5-1.7c7.6-5.1,16-6.7,24.9-4.9
			c8.2,1.7,13.2,7.1,15.2,15.2c0.7,2.8,1,5.7,1,8.5c0.1,10.7,0,21.4,0,32.2c0,0.5,0,1,0,1.4c0,0.9-0.5,1.4-1.3,1.4c-2.3,0-4.6,0-7,0
			c-0.9,0-1.3-0.5-1.3-1.4c0-0.6,0-1.3,0-1.9c0-10.1,0-20.2,0-30.2c0-2.6-0.2-5.1-0.9-7.6c-1.6-5.2-5.4-8.4-11.5-9
			c-8.4-0.8-15,2.9-20.5,9c-1.2,1.3-1.4,2.7-1.4,4.4c0,10.9,0,21.8,0,32.6c0,0.6,0,1.3,0,1.9c-0.1,1.8-0.3,2.1-2.1,2.1
			c-1.8,0.1-3.5,0.1-5.3,0c-1.8-0.1-1.9-0.3-2-1.9c0-0.6,0-1.1,0-1.7c0-17,0-33.9,0-50.9C1112,120.5,1112,119.5,1112,118.1z"/>
		<path class="st0" d="M539.9,118.1c3.3,0,6.1,0,9.2,0c0.2,1.8,0.4,3.5,0.6,5.6c1.1-0.7,1.8-1.2,2.5-1.7c7.6-5.2,16-6.7,24.9-4.9
			c8.2,1.7,13.2,7.1,15.2,15.2c0.7,2.8,1,5.7,1,8.5c0.1,10.7,0,21.4,0,32.2c0,0.5,0,1,0,1.4c0,0.9-0.5,1.4-1.3,1.4c-2.3,0-4.6,0-7,0
			c-0.9,0-1.3-0.5-1.3-1.4c0-0.6,0-1.3,0-1.9c0-10,0-20,0-30c0-2.2-0.1-4.5-0.6-6.7c-1.4-6.2-6.1-9.9-12.5-10.2
			c-7.9-0.4-14,3-19.3,8.5c-1.3,1.4-1.9,3-1.9,5c0.1,10.9,0,21.8,0,32.6c0,0.7,0,1.4,0,2.2c-0.1,1.5-0.3,1.8-1.9,1.9
			c-1.9,0.1-3.8,0.1-5.8,0c-1.5-0.1-1.7-0.3-1.8-1.9c0-0.6,0-1.1,0-1.7c0-17,0-33.9,0-50.9C539.9,120.5,539.9,119.5,539.9,118.1z"/>
		<path class="st0" d="M1661.7,118c0.1,2,0.2,3.6,0.3,5.8c1.2-0.8,2-1.3,2.7-1.8c7.3-4.9,15.4-6.5,24-4.9
			c8.8,1.6,14.6,7.6,16.2,16.4c0.4,2.2,0.6,4.4,0.6,6.7c0.1,11,0,21.9,0,32.9c0,0.5,0,1,0,1.4c0,1-0.6,1.5-1.5,1.5
			c-2.2,0-4.3,0-6.5,0c-0.8,0-1.3-0.5-1.3-1.4c0-0.6,0-1.3,0-1.9c0-10,0.1-20,0-30c0-2.5-0.3-5.1-1-7.6c-1.4-5.3-5.1-8.6-11.3-9.2
			c-8.8-0.9-15.6,3-21.2,9.5c-0.9,1.1-0.9,2.3-0.9,3.6c0,11.2,0,22.4,0,33.6c0,3.4,0,3.4-3.5,3.4c-1.4,0-2.9,0-4.3,0
			c-1.1,0-1.6-0.5-1.6-1.6c0-0.6,0-1.1,0-1.7c0-17.1,0-34.2,0-51.3c0-0.6,0-1.1,0-1.7c0-1,0.4-1.7,1.6-1.7
			C1656.4,118,1658.9,118,1661.7,118z"/>
		<path class="st0" d="M1792.7,118c3,0,5.6,0,8.2,0c0.8,0,1.1,0.6,1.1,1.3c0,0.8,0,1.6,0,2.4c0,0.6,0,1.1,0.1,1.7
			c0,0.2,0.2,0.4,0.5,0.9c0.7-0.5,1.3-0.9,1.9-1.4c3.9-3.2,8.2-5.3,13.1-6.1c1.9-0.3,3.9-0.3,6.3-0.4c0.2,3.2,0.1,6.1,0.1,9.3
			c-1.2,0.2-2.2,0.4-3.3,0.5c-8.1,0.5-13.9,4.7-17.9,11.6c-0.6,1-0.6,2.3-0.7,3.5c0,10.1,0,20.2,0,30.2c0,0.4,0,0.8,0,1.2
			c0,3.2,0,3.2-3.2,3.2c-1.5,0-3,0-4.6,0c-1.1,0-1.6-0.5-1.6-1.6c0-0.6,0-1.1,0-1.7c0-17.2,0-34.4,0-51.6
			C1792.7,120.2,1792.7,119.4,1792.7,118z"/>
		<path class="st0" d="M758.5,117.9c0,2.3,0,4.2,0,6.6c1.1-0.8,1.8-1.2,2.3-1.6c3.9-3.1,8.2-5.2,13.1-6.1c1.6-0.3,3.2-0.2,4.8-0.3
			c1,0,1.5,0.5,1.5,1.5c0,2.2,0,4.3,0,6.5c0,1.1-0.7,1.5-1.7,1.6c-1.7,0.2-3.5,0.3-5.2,0.7c-6.2,1.5-10.9,5.2-14.1,10.7
			c-0.6,1-0.8,2.3-0.8,3.4c-0.1,10.4,0,20.8,0,31.2c0,0.5,0,1,0,1.4c0,2.2-0.1,2.4-2.3,2.4c-1.8,0-3.5,0.1-5.3,0
			c-1.5-0.1-1.8-0.4-1.9-1.9c0-0.6,0-1.1,0-1.7c0-16.9,0-33.9,0-50.8c0-3.6,0-3.6,3.7-3.6C754.5,117.9,756.2,117.9,758.5,117.9z"/>
		<path class="st0" d="M512.5,118c2.9,0,5.5,0,8,0c0.9,0,1.3,0.5,1.3,1.4c0,0.6,0,1.3,0,1.9c0,17.1,0,34.2,0,51.3c0,0.2,0,0.5,0,0.7
			c0,2.5-0.2,2.6-2.5,2.7c-1.6,0-3.2,0-4.8,0c-1.8-0.1-2-0.2-2-2.1c0-0.3,0-0.6,0-1c0-17.3,0-34.5,0-51.8
			C512.5,120.2,512.5,119.3,512.5,118z"/>
		<path class="st0" d="M517.3,107.2c-4.1,0.3-6.6-3.4-6.6-6.4c0-3.5,2.9-6.6,6.5-6.7c3.5-0.1,6.5,3,6.6,6.5
			C523.7,104.4,521,107.2,517.3,107.2z"/>
	</g>
	<g>
		<path class="st0" d="M17.8,147.9c0-2,0-4,0-5.9c0-0.2,0.1-0.4,0.1-0.6c0.1-4.2,0.4-8.5,1-12.7c0.6-3.8,1.1-7.5,1.9-11.3
			c2.1-9.8,5.3-19.2,9.7-28.2c7.8-16.3,18.6-30.3,32.3-42C71.1,40,80.2,34.1,90,29.2c10.3-5.1,21.1-8.7,32.4-10.8
			c0.5-0.1,0.9,0,1.2,0.4c2.5,2.6,5,5.1,7.5,7.6c0.3,0.3,0.7,0.5,1.1,0.5c2-0.1,4-0.1,6-0.1c3.3-0.1,6.7-0.1,10-0.2
			c0.4,0,0.8-0.2,1.1-0.4c3.3-3,6.5-6,9.8-9c0.2-0.2,0.6-0.3,0.9-0.3c2.1,0.2,4.1,0.5,6.2,0.8c5.7,0.8,11.3,2.1,16.8,3.7
			c20.3,6,38,16.5,53.3,31.2c5,4.8,9.6,10.1,13.7,15.7c8,10.8,14.2,22.5,18.5,35.2c3,8.8,5,17.8,6,27.1c0.3,3.3,0.7,6.6,0.8,10
			c0.1,4.9,0.2,9.7-0.4,14.6c-0.4,3.4-0.7,6.8-1.2,10.1c-0.9,6.5-2.5,12.8-4.5,19c-4.7,14.8-12,28.3-21.6,40.5
			c-6.5,8.3-14,15.7-22.3,22.1c-11.9,9.2-25,16.1-39.4,20.7c-8,2.6-16.2,4.4-24.6,5.3c-3.1,0.3-6.1,0.6-9.2,0.8
			c-2.3,0.1-4.6,0.1-6.9,0.1c-2.5,0-5.1-0.1-7.6-0.3c-3.1-0.2-6.3-0.5-9.4-1c-5.5-0.8-10.9-1.9-16.3-3.4
			c-17.1-4.8-32.5-12.8-46.3-23.9c-6.7-5.4-12.8-11.5-18.3-18.2c-5.8-7-10.7-14.5-14.9-22.5c-5.4-10.3-9.3-21.1-11.7-32.5
			c-1.1-5-1.8-10-2.3-15.1c-0.3-2.8-0.3-5.5-0.5-8.3C17.9,148.3,17.8,148.1,17.8,147.9z M103.5,118.1c-0.4,0-0.7,0-1,0
			c-15.1,0-30.1,0-45.2,0c-1,0-1,0-1,1c0,30.9,0,61.7,0,92.6c0,1.2-0.2,1.1,1.1,1.1c18.6,0,37.2,0,55.8,0c2,0,2.1-0.1,2.9-2
			c0.8-1.9,0.8-3.9,0.8-6c0-1.3-0.4-2.6-0.9-3.8c-0.5-1-1.2-1.4-2.3-1.4c-13.6,0-27.1,0-40.7,0c-0.9,0-0.9,0-0.9-0.9
			c0-8.1,0-16.1,0-24.2c0-0.9,0-0.9,0.9-0.9c9.1,0,18.3,0,27.4,0c0.5,0,0.9,0.1,1.4,0c0.4-0.1,0.9-0.3,1.1-0.6
			c0.5-0.8,1-1.6,1.1-2.4c0.2-1.6,0.4-3.3,0.3-5c-0.1-1.3-0.5-2.7-0.8-4c-0.2-0.8-0.8-1.2-1.7-1.1c-9.6,0-19.2,0-28.8,0
			c-0.9,0-0.9,0-0.9-0.9c0-9.1,0-18.2,0-27.2c0-0.9,0-0.9,0.9-0.9c9.7,0,19.4,0,29,0c0.3,0,0.6,0,1,0
			C102.5,126.8,102.6,122.5,103.5,118.1z M200.9,118c0.2,1.3,0.4,2.6,0.5,3.9c0.2,1.8,0.3,3.6,0.3,5.4c0,1.6-1.2,2.7-2.8,2.7
			c-2.2,0-4.3,0-6.5,0c-0.7,0-0.9,0.2-0.9,0.9c0,27,0,54,0,81c0,0.7,0.2,0.9,0.9,0.8c3.6,0,7.2,0,10.8,0c1.4,0,2.7,0,4.1,0
			c0.5,0,0.7-0.2,0.7-0.7c0-0.2,0-0.4,0-0.7c0-12.3,0-24.7,0-37c0-0.9,0-0.9,0.9-0.9c9.3,0,18.5,0,27.8,0c1.9,0,2.2-0.2,2.9-2
			c0.1-0.2,0.1-0.3,0.2-0.5c0.7-1.9,0.6-3.9,0.5-5.9c-0.1-1.4-0.3-2.8-1-4.1c-0.4-0.7-0.9-1-1.7-1c-9.6,0-19.1,0-28.7,0
			c-1,0-1,0-1-0.9c0-9,0-18,0-27.1c0-0.9,0-0.9,0.9-0.9c13.7,0,27.4,0,41.1,0c1.5,0,1.8-0.2,2.3-1.6c0.1-0.3,0.2-0.5,0.2-0.8
			c0.5-2,0.6-4,0.5-6c-0.1-1.3-0.4-2.5-1-3.7c-0.4-0.8-1-1.1-1.8-1.1c-16.1,0-32.2,0-48.3,0C201.4,118,201.2,118,200.9,118z
			 M119.4,95.6c-0.2,0.2-0.4,0.3-0.5,0.4c-9.1,9.9-13.3,21.5-12.4,35c0.2,3.3,0.8,6.4,1.8,9.5c4.5,14.2,13.7,24.1,27.6,29.7
			c1.7,0.7,3.5,1.1,5.3,1.7c0.8,0.2,1.3,0.8,1,1.5c-0.2,0.3-0.5,0.6-0.8,0.8c-2.7,1.8-5.4,3.6-8,5.4c-1.6,1.1-2,3-1,4.5
			c1.5,2.3,3,4.5,4.6,6.8c1.1,1.6,3,1.9,4.6,0.9c1.2-0.8,2.3-1.6,3.5-2.4c9.4-6.3,18.7-12.6,28.1-18.9c0.5-0.3,0.5-0.6,0.2-1
			c-1.2-1.7-2.3-3.4-3.5-5.1c-5.9-8.8-11.8-17.5-17.7-26.3c-1.2-1.9-3-2.2-4.9-0.9c-2.1,1.4-4.1,2.8-6.2,4.2c-2,1.3-2.3,3.1-1,5
			c2.1,3.2,4.2,6.3,6.4,9.5c0.4,0.5,0.6,1.1,0.2,1.6c-0.4,0.5-0.9,0.5-1.5,0.4c-4.9-1.2-9.3-3.3-13.1-6.6
			c-8.6-7.5-12.1-17-10.7-28.3c0.7-5.5,3-10.4,6.4-14.7c0.5-0.6,1-1.2,1.6-1.9c-0.3-0.1-0.4-0.2-0.6-0.2c-2.3-0.3-4.1-1.5-5.3-3.5
			c-0.8-1.4-1.6-2.8-2.4-4.2C120.5,97.4,120,96.5,119.4,95.6z M172.7,82.2c0.1-0.3,0.1-0.5,0.2-0.7c1.1-5.1,2.2-10.2,3.3-15.3
			c0.4-2.1-0.3-3.9-2.1-5c-3.7-2.4-7.5-4.7-11.2-7.1c-1.2-0.7-2.3-1.5-3.5-2.2c-1.4,2.2-3.6,3-6,3.4c-2,0.4-3.9,0.7-5.9,1
			c-4.8,0.8-9.7,1.6-14.5,2.3c-1.8,0.3-3.6,0.2-5.3-0.5c-0.6-0.3-0.9-0.1-1.2,0.4c-3.9,5.6-7.9,11.1-11.8,16.7
			c-1.3,1.8-1.4,3.6-0.3,5.5c0.9,1.5,1.8,3,2.6,4.6c3,5.2,6,10.4,9,15.6c0.8,1.4,2,2.1,3.6,2c1.5-0.1,2.9-0.6,4.2-1.4
			c1-0.6,1.6-1.7,1.5-2.9c-0.1-1.2-0.4-2.5-0.7-3.7c-1.1-4.5-2.2-9.1-3.3-13.6c-0.2-1-0.1-1.5,0.7-2c0.6-0.4,1.2-0.8,1.8-1.2
			c3.5-2.5,7-5,10.5-7.4c0.8-0.6,1.6-0.9,2.6-0.7c4.1,1,8.2,2,12.3,3c0.6,0.2,0.9,0.5,0.9,1.2c-0.1,1.1-0.1,2.2-0.1,3.3
			c0,1,0,0.9,0.9,1.2c2.6,0.6,5.2,1.3,7.8,2.1C170,81.1,171.3,81.7,172.7,82.2z M138.7,99.2c0.1,0,0.3-0.1,0.5-0.2
			c4.7-2.2,9.7-3.1,14.9-2.8c1.5,0.1,3.1,0.3,4.6,0.6c7,1.5,12.8,5,17.4,10.4c4.5,5.3,6.9,11.4,7.3,18.3c0,0.5,0.2,0.7,0.7,0.7
			c2.3,0,4.5,0,6.8,0c2.2,0,4.3,0,6.5,0c0.5,0,0.7-0.2,0.7-0.7c-0.1-0.7-0.1-1.4-0.1-2.1c-0.2-3.3-0.9-6.6-1.9-9.8
			c-2.8-8.7-7.6-15.9-14.7-21.7c-8.3-6.8-17.9-10.2-28.6-10.4c-1.9,0-3.9,0.2-5.8,0.3c-3.7,0.4-7.2,1.3-10.7,2.6
			c-0.5,0.2-0.6,0.4-0.5,0.9C136.6,90.1,137.9,94.6,138.7,99.2z M127,49.1c0,0,0.1,0,0.1,0c0,1.4,0,2.9,0,4.3c0,1.1,0.8,2.2,1.9,2.3
			c1.1,0.2,2.3,0.4,3.4,0.2c3.1-0.4,6.2-1,9.3-1.5c3.1-0.5,6.3-1,9.4-1.5c1.6-0.3,3.2-0.5,4.6-1.2c1-0.5,1.6-1.3,1.6-2.4
			c0-0.8-0.1-1.7-0.3-2.5c-0.3-1.5-0.8-3-1.7-4.3c-0.4-0.5-0.8-0.9-1.5-0.9c-0.7,0-1.4,0-2,0c-2,0.2-4,0.3-5.9,0.6
			c-3,0.4-6,0.9-9,1.4c-2.7,0.4-5.3,0.9-8,1.4c-1.1,0.2-1.8,1.1-1.8,2.2C127,47.9,127,48.5,127,49.1z M128.5,42.4
			c0.4,0,0.6,0,0.8-0.1c0.8-0.1,1.7-0.3,2.5-0.5c3.6-0.6,7.2-1.3,10.8-1.8c2.9-0.4,5.7-0.7,8.6-1c0.9-0.1,0.9-0.1,0.7-0.9
			c-0.5-2.4-1-4.7-1.4-7.1c-0.2-0.8-0.4-1.6-0.5-2.3c-6.6,0.1-13,0.2-19.5,0.3C129.9,33.4,129.2,37.8,128.5,42.4z"/>
	</g>
</g>
</svg>
